
<svg xmlns="http://www.w3.org/2000/svg" version="1.1" xmlns:xlink="http://www.w3.org/1999/xlink" preserveAspectRatio="none" x="0px" y="0px" width="550px" height="400px" viewBox="0 0 550 400">
<defs>
<g id="Layer0_0_FILL">
<path fill="#FF0000" stroke="none" d="
M 138.35 116.05
L 127.55 116.05 111.35 162 121.2 162 124.35 152.5 141.3 152.5 144.25 162 154.35 162 138.35 116.05
M 138.6 144.6
L 126.9 144.6 132.7 126.45 132.9 126.45 138.6 144.6
M 291.15 124.2
L 291.15 116.05 254.1 116.05 254.1 124.2 267.9 124.2 267.9 162 277.3 162 277.3 124.2 291.15 124.2
M 309.85 116.05
L 300.45 116.05 300.45 162 309.85 162 309.85 116.05
M 162.15 116.05
L 162.15 146.4
Q 162.15 149.85 163 152.55 163.9 155.35 165.7 157.5 168.35 160.55 172.75 161.95 176.15 163.1 180.05 163.1 188.75 163.1 193.4 158.95 198.4 154.55 198.4 145.75
L 198.4 116.05 188.85 116.05 188.85 146.1
Q 188.85 150.45 186.75 152.55 184.55 154.85 179.9 154.85 176.2 154.85 174.1 152.6 171.75 150.25 171.75 145.7
L 171.75 116.05 162.15 116.05
M 242.85 120.55
Q 237.45 115 228.4 115 219.35 115 213.8 121.1 207.9 127.55 207.9 138.95 207.9 150.5 213.6 156.95 219.05 163.1 228.35 163.1 236.35 163.1 241.45 158.3 246.15 153.9 247.7 146.05
L 238.3 146.05
Q 237.4 150.25 234.9 152.5 232.45 154.75 228.55 154.75 222.9 154.75 219.95 150 217.35 145.8 217.35 139.15 217.35 130.55 221.25 126.45 224.15 123.4 228.55 123.4 233.5 123.4 236 126.3 237.4 127.95 238.3 131.3
L 247.7 131.3
Q 247.2 125.15 242.85 120.55
M 341.35 114.9
Q 334 114.9 328.45 118.85 320.05 125 320.05 139 320.05 152.9 328.45 159.05 334.05 163.1 341.35 163.1 348.65 163.1 354.2 159.05 362.7 152.9 362.7 139 362.7 125 354.2 118.85 348.7 114.9 341.35 114.9
M 341.35 123.1
Q 346.05 123.1 349.2 126.25 353.35 130.4 353.35 139 353.35 147.6 349.2 151.7 346.05 154.85 341.35 154.85 336.6 154.85 333.45 151.7 329.35 147.6 329.35 139 329.35 130.4 333.45 126.25 336.6 123.1 341.35 123.1
M 380.6 129.3
L 380.75 129.3 398.9 162 408.2 162 408.2 116.05 399.5 116.05 399.5 148.1 399.45 148.1 381.75 116.05 371.85 116.05 371.85 162 380.6 162 380.6 129.3 Z"/>
</g>
</defs>

<g transform="matrix( 1, 0, 0, 1, 0,0) ">
<use xlink:href="#Layer0_0_FILL"/>
</g>
</svg>
